<?xml version="1.0" encoding="UTF-8"?>
<svg id="Layer_2" data-name="Layer 2" xmlns="http://www.w3.org/2000/svg" xmlns:xlink="http://www.w3.org/1999/xlink" viewBox="0 0 255.99 169.52">
  <defs>
    <style>
      .cls-1 {
        fill: url(#linear-gradient-2);
      }

      .cls-2 {
        fill: url(#linear-gradient-10);
      }

      .cls-3 {
        fill: #fff;
      }

      .cls-4 {
        fill: url(#linear-gradient-4);
      }

      .cls-5 {
        fill: url(#linear-gradient-3);
      }

      .cls-6 {
        fill: url(#linear-gradient-5);
      }

      .cls-7 {
        fill: url(#linear-gradient-8);
      }

      .cls-8 {
        fill: url(#linear-gradient-7);
      }

      .cls-9 {
        fill: url(#linear-gradient-9);
      }

      .cls-10 {
        fill: url(#linear-gradient-6);
      }

      .cls-11 {
        fill: #010101;
      }

      .cls-12 {
        fill: #3fbded;
      }

      .cls-13 {
        fill: url(#linear-gradient);
      }
    </style>
    <linearGradient id="linear-gradient" x1="-3534.15" y1="5062.78" x2="-3573.01" y2="4988.04" gradientTransform="translate(811.81 2286.03) scale(.22 -.43)" gradientUnits="userSpaceOnUse">
      <stop offset="0" stop-color="#4998d3"/>
      <stop offset="0" stop-color="#4a99d3"/>
      <stop offset=".26" stop-color="#42baeb"/>
      <stop offset=".51" stop-color="#41c7f2"/>
      <stop offset=".76" stop-color="#56c9e9"/>
      <stop offset="1" stop-color="#5bcae8"/>
    </linearGradient>
    <linearGradient id="linear-gradient-2" x1="-1982.29" y1="7068.19" x2="-2116.79" y2="7068.19" gradientTransform="translate(738.55 2110.62) scale(.34 -.28)" gradientUnits="userSpaceOnUse">
      <stop offset="0" stop-color="#fee000"/>
      <stop offset=".41" stop-color="#febd11"/>
      <stop offset=".78" stop-color="#faa51a"/>
      <stop offset="1" stop-color="#f99c1c"/>
    </linearGradient>
    <linearGradient id="linear-gradient-3" x1="-1702.8" y1="7490.53" x2="-1825.4" y2="7396.56" gradientTransform="translate(641.07 2159.22) scale(.35 -.27)" gradientUnits="userSpaceOnUse">
      <stop offset="0" stop-color="#ef4049"/>
      <stop offset="1" stop-color="#c31e63"/>
    </linearGradient>
    <linearGradient id="linear-gradient-4" x1="-1797.64" y1="7280.23" x2="-1742.97" y2="7238.26" gradientTransform="translate(641.13 2072.32) scale(.35 -.27)" gradientUnits="userSpaceOnUse">
      <stop offset="0" stop-color="#32a072"/>
      <stop offset=".07" stop-color="#2da771"/>
      <stop offset=".48" stop-color="#4bba71"/>
      <stop offset=".8" stop-color="#5ebd6b"/>
      <stop offset="1" stop-color="#66be69"/>
    </linearGradient>
    <linearGradient id="linear-gradient-5" x1="-1144.05" y1="8972.77" x2="-1245.54" y2="8919.51" gradientTransform="translate(538.75 2118.95) scale(.43 -.22)" gradientUnits="userSpaceOnUse">
      <stop offset="0" stop-color="#cc2f36"/>
      <stop offset="1" stop-color="#9c1c50"/>
    </linearGradient>
    <linearGradient id="linear-gradient-6" x1="-4683.27" y1="4308.72" x2="-4704.29" y2="4247.82" gradientTransform="translate(867.49 2351.65) scale(.18 -.52)" gradientUnits="userSpaceOnUse">
      <stop offset="0" stop-color="#308aca"/>
      <stop offset="0" stop-color="#308aca"/>
      <stop offset=".26" stop-color="#05a7e0"/>
      <stop offset=".51" stop-color="#03b8e0"/>
      <stop offset=".76" stop-color="#24c1dd"/>
      <stop offset="1" stop-color="#2ac1db"/>
    </linearGradient>
    <linearGradient id="linear-gradient-7" x1="-1803.19" y1="7537.81" x2="-1927.99" y2="7537.81" gradientTransform="translate(730.55 2095.37) scale(.37 -.26)" gradientUnits="userSpaceOnUse">
      <stop offset="0" stop-color="#dfc523"/>
      <stop offset=".41" stop-color="#dfa726"/>
      <stop offset=".78" stop-color="#df9226"/>
      <stop offset="1" stop-color="#df8a26"/>
    </linearGradient>
    <linearGradient id="linear-gradient-8" x1="-1803.2" y1="7458.02" x2="-1928.01" y2="7458.02" gradientTransform="translate(730.55 2066.6) scale(.37 -.26)" gradientUnits="userSpaceOnUse">
      <stop offset="0" stop-color="#fee741"/>
      <stop offset=".41" stop-color="#ffcf41"/>
      <stop offset=".78" stop-color="#fdbb41"/>
      <stop offset="1" stop-color="#fcb442"/>
    </linearGradient>
    <linearGradient id="linear-gradient-9" x1="-4711.23" y1="4008.86" x2="-4732.14" y2="3950.77" gradientTransform="translate(867.8 2190.78) scale(.18 -.52)" gradientUnits="userSpaceOnUse">
      <stop offset="0" stop-color="#5db4e5"/>
      <stop offset="0" stop-color="#5cb5e5"/>
      <stop offset=".26" stop-color="#50c9f5"/>
      <stop offset=".51" stop-color="#62cced"/>
      <stop offset=".76" stop-color="#6fcee9"/>
      <stop offset="1" stop-color="#71cee8"/>
    </linearGradient>
    <linearGradient id="linear-gradient-10" x1="-1223.14" y1="8606.96" x2="-1177.82" y2="8583.17" gradientTransform="translate(538.77 2002.52) scale(.43 -.22)" gradientUnits="userSpaceOnUse">
      <stop offset="0" stop-color="#66b895"/>
      <stop offset=".07" stop-color="#64bd96"/>
      <stop offset=".48" stop-color="#6bc290"/>
      <stop offset=".8" stop-color="#73c48c"/>
      <stop offset="1" stop-color="#74c489"/>
    </linearGradient>
  </defs>
  <g id="Layer_1-2" data-name="Layer 1">
    <g>
      <g>
        <path class="cls-11" d="M16.44,83.04c-.66,0-1.31,0-1.96-.02-1.36-.02-2.72-.13-4.06-.35-1.25-.21-2.46-.62-3.6-1.19-1.12-.57-2.15-1.31-3.03-2.21-.9-.88-1.65-1.91-2.22-3.03-.58-1.13-.97-2.34-1.18-3.6-.22-1.35-.34-2.71-.36-4.07-.02-.46-.03-1.98-.03-1.98V16.43s.02-1.5.03-1.94c.02-1.36.14-2.72.36-4.06.21-1.26.61-2.47,1.18-3.61.56-1.12,1.31-2.15,2.2-3.03.89-.89,1.92-1.64,3.04-2.22,1.13-.57,2.34-.97,3.59-1.18C11.76.16,13.12.04,14.48.03l1.96-.03h223.1l1.98.03c1.35.02,2.7.13,4.04.35,1.26.21,2.48.62,3.63,1.19,2.25,1.16,4.09,3,5.24,5.25.57,1.13.96,2.34,1.16,3.58.22,1.35.35,2.72.38,4.1,0,.61,0,1.28,0,1.93.02.81.02,1.59.02,2.37v45.44c0,.79,0,1.56-.02,2.33,0,.71,0,1.35,0,2.02-.02,1.35-.15,2.69-.37,4.02-.2,1.26-.6,2.49-1.17,3.63-.57,1.11-1.32,2.13-2.2,3.01-.89.9-1.91,1.65-3.04,2.22-1.14.58-2.36.98-3.62,1.19-1.34.22-2.7.34-4.06.35-.65.02-1.3.02-1.95.02h-2.35s-220.76,0-220.76,0Z"/>
        <path class="cls-3" d="M51.88,42.17c.05-3.68,1.98-7.09,5.11-9.01-1.99-2.84-5.2-4.58-8.66-4.68-3.64-.38-7.18,2.18-9.04,2.18s-4.75-2.14-7.83-2.08c-4.05.13-7.74,2.38-9.71,5.92-4.2,7.27-1.07,17.95,2.95,23.83,2.01,2.88,4.36,6.09,7.44,5.98,3.01-.13,4.14-1.92,7.77-1.92s4.66,1.92,7.8,1.85c3.23-.05,5.27-2.89,7.21-5.8,1.45-2.05,2.56-4.32,3.3-6.71-3.83-1.62-6.33-5.39-6.34-9.55ZM45.95,24.61c1.76-2.11,2.63-4.83,2.42-7.58-2.69.28-5.18,1.57-6.96,3.6-1.76,2.01-2.66,4.63-2.48,7.3,2.73.03,5.32-1.2,7.03-3.32ZM89.94,57.02h-10.27l-2.47,7.29h-4.35l9.73-26.96h4.52l9.73,26.96h-4.43l-2.47-7.29ZM80.73,53.66h8.15l-4.01-11.83h-.11l-4.02,11.83ZM117.85,54.48c0,6.11-3.27,10.03-8.2,10.03-2.54.13-4.95-1.21-6.18-3.44h-.09v9.73h-4.04v-26.16h3.91v3.27h.07c1.29-2.22,3.69-3.56,6.26-3.47,4.99,0,8.28,3.94,8.28,10.03h0ZM113.7,54.48c0-3.98-2.06-6.6-5.19-6.6s-5.16,2.67-5.16,6.6,2.07,6.61,5.16,6.61,5.19-2.6,5.19-6.61h0ZM139.48,54.48c0,6.11-3.27,10.03-8.2,10.03-2.54.13-4.95-1.21-6.18-3.44h-.09v9.73h-4.04v-26.16h3.91v3.27h.07c1.29-2.22,3.69-3.56,6.26-3.47,4.99,0,8.28,3.94,8.28,10.03h0ZM135.34,54.48c0-3.98-2.06-6.6-5.19-6.6s-5.16,2.67-5.16,6.6,2.07,6.61,5.16,6.61,5.19-2.6,5.19-6.61h0ZM153.78,56.79c.3,2.67,2.9,4.43,6.45,4.43s5.85-1.75,5.85-4.17c0-2.09-1.48-3.35-4.97-4.2l-3.5-.84c-4.95-1.2-7.25-3.51-7.25-7.27,0-4.65,4.05-7.85,9.81-7.85s9.6,3.2,9.73,7.85h-4.07c-.24-2.69-2.47-4.31-5.72-4.31s-5.47,1.64-5.47,4.04c0,1.91,1.42,3.03,4.9,3.89l2.97.73c5.53,1.31,7.83,3.53,7.83,7.47,0,5.04-4.02,8.2-10.41,8.2-5.98,0-10.01-3.08-10.27-7.96h4.13ZM179.04,40v4.65h3.74v3.19h-3.74v10.84c0,1.68.75,2.47,2.39,2.47.44,0,.89-.04,1.33-.09v3.18c-.74.14-1.49.2-2.24.19-3.98,0-5.53-1.49-5.53-5.31v-11.27h-2.86v-3.19h2.86v-4.65h4.05ZM184.95,54.48c0-6.18,3.64-10.07,9.32-10.07s9.32,3.89,9.32,10.07-3.61,10.07-9.32,10.07-9.32-3.87-9.32-10.07ZM199.48,54.48c0-4.24-1.94-6.75-5.21-6.75s-5.21,2.52-5.21,6.75,1.94,6.74,5.21,6.74,5.21-2.48,5.21-6.74ZM206.92,44.65h3.85v3.35h.09c.53-2.15,2.52-3.64,4.73-3.55.46,0,.93.05,1.38.15v3.77c-.59-.18-1.2-.26-1.81-.24-.05,0-.11,0-.16,0-2.23,0-4.07,1.83-4.07,4.06,0,.15,0,.31.03.46v11.66h-4.04v-19.65ZM235.57,58.53c-.54,3.57-4.02,6.02-8.46,6.02-5.72,0-9.27-3.83-9.27-9.98s3.57-10.16,9.1-10.16,8.86,3.74,8.86,9.7v1.38h-13.88v.24c-.01.15-.02.3-.02.45,0,2.81,2.31,5.12,5.12,5.12.06,0,.13,0,.19,0,1.95.18,3.81-.95,4.54-2.77h3.83ZM221.93,52.67h9.83c0-.09,0-.18,0-.26,0-2.59-2.13-4.73-4.73-4.73-.03,0-.07,0-.1,0h-.03c-2.73,0-4.98,2.25-4.98,4.98h0ZM80.22,17.05c.14,0,.27-.02.41-.02,3.14,0,5.73,2.59,5.73,5.73,0,.24-.02.48-.05.72,0,4.14-2.24,6.52-6.1,6.52h-4.68v-12.95h4.68ZM77.56,28.18h2.44c.08,0,.16,0,.24,0,2.23,0,4.07-1.84,4.07-4.07,0-.2-.01-.4-.04-.59.03-.18.04-.37.04-.56,0-2.24-1.84-4.08-4.08-4.08-.08,0-.15,0-.23,0h-2.44v9.29ZM88.59,25.12c-.02-.15-.02-.29-.02-.44,0-2.54,2.09-4.63,4.63-4.63s4.63,2.09,4.63,4.63c0,.15,0,.3-.02.44.01.15.02.3.02.45,0,2.54-2.09,4.63-4.63,4.63s-4.63-2.09-4.63-4.63c0-.15,0-.3.02-.45h0ZM95.83,25.12c0-2.12-.95-3.36-2.62-3.36s-2.62,1.24-2.62,3.36.94,3.36,2.62,3.36,2.62-1.24,2.62-3.36h0ZM110.07,30.01h-2l-2.02-7.2h-.15l-2.01,7.2h-1.98l-2.7-9.78h1.96l1.75,7.46h.15l2.01-7.46h1.85l2.01,7.46h.15l1.74-7.46h1.93l-2.69,9.78ZM115.02,20.23h1.86v1.55h.14c.5-1.14,1.68-1.84,2.92-1.74.08,0,.16,0,.24,0,1.74,0,3.18,1.43,3.18,3.18,0,.16-.01.31-.03.47v6.33h-1.93v-5.84c0-1.57-.68-2.35-2.11-2.35-.03,0-.07,0-.1,0-1.23,0-2.24,1.01-2.24,2.24,0,.08,0,.16.01.24v5.72h-1.93v-9.78ZM126.39,16.42h1.93v13.59h-1.93v-13.59ZM131,25.12c-.02-.15-.02-.3-.02-.44,0-2.54,2.09-4.63,4.63-4.63s4.63,2.09,4.63,4.63c0,.15,0,.3-.02.44.02.15.02.3.02.45,0,2.54-2.09,4.63-4.63,4.63s-4.63-2.09-4.63-4.63c0-.15,0-.3.02-.45ZM138.24,25.12c0-2.12-.95-3.36-2.62-3.36s-2.62,1.24-2.62,3.36.94,3.36,2.62,3.36,2.62-1.24,2.62-3.36ZM142.26,27.25c0-1.76,1.31-2.77,3.64-2.92l2.65-.15v-.84c0-1.03-.68-1.62-2-1.62-1.08,0-1.82.4-2.04,1.09h-1.87c.2-1.68,1.78-2.76,3.99-2.76,2.45,0,3.83,1.22,3.83,3.28v6.68h-1.86v-1.37h-.15c-.63,1-1.75,1.59-2.94,1.53-.1.01-.2.02-.31.02-1.62,0-2.95-1.32-2.95-2.94ZM148.54,26.41v-.82l-2.39.15c-1.35.09-1.96.55-1.96,1.41s.76,1.39,1.81,1.39c.08,0,.16.01.23.01,1.21,0,2.22-.94,2.3-2.15ZM153,25.12c0-3.09,1.59-5.05,4.06-5.05,1.25-.06,2.42.61,3,1.72h.15v-5.37h1.93v13.59h-1.85v-1.55h-.15c-.63,1.09-1.81,1.75-3.07,1.71-2.49,0-4.06-1.96-4.06-5.05h0ZM154.99,25.12c0,2.07.98,3.32,2.61,3.32s2.63-1.27,2.63-3.31-1.02-3.32-2.63-3.32-2.61,1.25-2.61,3.31ZM170.11,25.12c-.01-.15-.02-.3-.02-.44,0-2.54,2.09-4.63,4.63-4.63s4.63,2.09,4.63,4.63c0,.15,0,.3-.02.44.02.15.02.3.02.45,0,2.54-2.09,4.63-4.63,4.63s-4.63-2.09-4.63-4.63c0-.15,0-.3.02-.45ZM177.34,25.12c0-2.12-.95-3.36-2.62-3.36s-2.62,1.24-2.62,3.36.94,3.36,2.62,3.36,2.62-1.24,2.62-3.36ZM181.91,20.23h1.86v1.55h.14c.5-1.14,1.68-1.84,2.92-1.74.08,0,.16,0,.24,0,1.74,0,3.18,1.43,3.18,3.18,0,.16-.01.31-.03.47v6.33h-1.93v-5.84c0-1.57-.68-2.35-2.11-2.35-.03,0-.07,0-.1,0-1.23,0-2.24,1.01-2.24,2.24,0,.08,0,.16.01.24v5.72h-1.93v-9.78ZM201.12,17.8v2.48h2.12v1.62h-2.12v5.03c0,1.02.42,1.47,1.38,1.47.25,0,.49-.02.74-.05v1.61c-.35.06-.7.1-1.05.1-2.14,0-3-.76-3-2.64v-5.52h-1.55v-1.63h1.55v-2.48h1.93ZM205.87,16.42h1.91v5.39h.15c.52-1.15,1.72-1.85,2.98-1.75.06,0,.12,0,.17,0,1.77,0,3.22,1.45,3.22,3.22,0,.14-.01.29-.03.43v6.31h-1.93v-5.84c0-1.56-.73-2.35-2.09-2.35-.06,0-.12,0-.19,0-1.25,0-2.28,1.03-2.28,2.28,0,.07,0,.13,0,.2v5.71h-1.93v-13.59ZM225.53,27.37c-.54,1.84-2.33,3.03-4.24,2.83-.04,0-.08,0-.12,0-2.44,0-4.44-2.01-4.44-4.44,0-.2.01-.41.04-.61-.03-.2-.04-.4-.04-.6,0-2.47,2.03-4.51,4.51-4.51h.04c2.72,0,4.36,1.86,4.36,4.93v.67h-6.9v.11c0,.07,0,.14,0,.22,0,1.42,1.17,2.58,2.58,2.58h.03c.94.11,1.86-.36,2.33-1.19h1.86ZM218.75,24.22h4.94c0-.06,0-.12,0-.17,0-1.29-1.07-2.36-2.36-2.36h-.08c-1.37,0-2.5,1.13-2.5,2.5v.03Z"/>
      </g>
      <g id="Layer_1-2" data-name="Layer 1-2">
        <g>
          <path class="cls-11" d="M246.51,169.52H9.48c-5.21,0-9.48-4.27-9.48-9.5v-56.98c0-5.22,4.27-9.5,9.48-9.5h237.03c5.21,0,9.48,4.27,9.48,9.5v56.98c0,5.22-4.27,9.5-9.48,9.5"/>
          <path class="cls-3" d="M89.92,113c0,1.59-.47,2.86-1.41,3.8-1.07,1.12-2.47,1.69-4.18,1.69s-3.04-.57-4.19-1.71c-1.15-1.14-1.72-2.55-1.72-4.24s.57-3.1,1.72-4.24c1.15-1.14,2.54-1.71,4.19-1.71.82,0,1.59.16,2.34.48.74.32,1.33.74,1.78,1.27l-1,1c-.75-.9-1.79-1.35-3.11-1.35-1.2,0-2.23.42-3.11,1.26-.87.84-1.31,1.94-1.31,3.29s.44,2.44,1.31,3.29c.87.84,1.91,1.26,3.11,1.26,1.27,0,2.33-.42,3.18-1.27.55-.55.87-1.32.95-2.31h-4.13v-1.37h5.51c.05.3.08.58.08.86"/>
          <path class="cls-3" d="M89.92,113h-.19c0,1.56-.45,2.76-1.36,3.67h0c-1.04,1.09-2.37,1.63-4.04,1.63-1.6,0-2.94-.55-4.05-1.66-1.11-1.11-1.67-2.46-1.67-4.11s.55-3,1.67-4.11c1.12-1.11,2.45-1.66,4.05-1.66.79,0,1.54.16,2.26.46.72.31,1.29.72,1.71,1.22l.14-.12-.13-.13-1,1,.13.13.15-.12c-.79-.95-1.89-1.42-3.26-1.42-1.24,0-2.34.44-3.24,1.32-.91.88-1.37,2.04-1.37,3.42s.46,2.55,1.37,3.42c.9.88,2,1.32,3.24,1.32,1.31,0,2.43-.44,3.31-1.33.59-.59.92-1.41,1.01-2.43l.02-.21h-4.15v-.99h5.32v-.19l-.19.03c.05.29.08.56.08.83h.38c0-.29-.03-.59-.08-.89l-.03-.16h-5.86v1.75h4.32v-.19l-.19-.02c-.08.96-.39,1.68-.9,2.19-.82.81-1.81,1.21-3.05,1.22-1.15,0-2.13-.4-2.98-1.21-.83-.81-1.25-1.84-1.25-3.15,0-1.31.42-2.34,1.25-3.15.84-.81,1.82-1.21,2.98-1.21,1.28,0,2.25.43,2.97,1.28l.13.16,1.15-1.15.12-.12-.11-.13c-.47-.56-1.09-1-1.85-1.33-.77-.33-1.57-.49-2.41-.49-1.69,0-3.14.59-4.32,1.77-1.18,1.17-1.78,2.65-1.78,4.38s.6,3.2,1.78,4.38c1.18,1.17,2.63,1.77,4.32,1.76,1.76,0,3.21-.58,4.32-1.74l-.14-.13.13.13c.98-.98,1.47-2.31,1.47-3.94h-.19M98.65,108.24h-5.18v3.61h4.67v1.37h-4.67v3.61h5.18v1.4h-6.64v-11.4h6.64v1.4"/>
          <path class="cls-3" d="M98.66,108.24v-.19h-5.37v3.99h4.67v.99h-4.67v3.99h5.18v1.02h-6.26v-11.02h6.26v1.21h.19v-.19.19h.19v-1.59h-7.02v11.78h7.02v-1.78h-5.18v-3.23h4.67v-1.75h-4.67v-3.23h5.18v-.19h-.19M104.82,118.23h-1.46v-9.99h-3.18v-1.4h7.82v1.4h-3.18v9.99"/>
          <path class="cls-3" d="M104.82,118.23v-.19h-1.27v-9.99h-3.18v-1.02h7.44v1.02h-3.18v10.19h.19v-.19.19h.19v-9.81h3.18v-1.78h-8.2v1.78h3.18v9.99h1.84v-.19h-.19M113.66,118.23v-11.4h1.46v11.4h-1.46"/>
          <path class="cls-3" d="M113.66,118.23h.19v-11.21h1.08v11.02h-1.27v.19h.19-.19v.19h1.65v-11.78h-1.84v11.78h.19v-.19M121.6,118.23h-1.46v-9.99h-3.18v-1.4h7.82v1.4h-3.18v9.99"/>
          <path class="cls-3" d="M121.6,118.23v-.19h-1.27v-9.99h-3.18v-1.02h7.44v1.02h-3.18v10.19h.19v-.19.19h.19v-9.81h3.18v-1.78h-8.2v1.78h3.18v9.99h1.84v-.19h-.19M132.32,115.81c.84.85,1.87,1.28,3.09,1.28s2.25-.43,3.09-1.28c.84-.85,1.26-1.95,1.26-3.27s-.42-2.42-1.26-3.27c-.84-.85-1.87-1.28-3.09-1.28s-2.25.43-3.09,1.28c-.84.85-1.26,1.94-1.26,3.27s.42,2.42,1.26,3.27ZM139.58,116.76c-1.12,1.15-2.51,1.73-4.17,1.73s-3.05-.57-4.17-1.73c-1.12-1.15-1.68-2.56-1.68-4.23s.56-3.08,1.68-4.23c1.11-1.15,2.51-1.73,4.17-1.73s3.04.58,4.17,1.74c1.12,1.16,1.68,2.56,1.68,4.22s-.56,3.08-1.68,4.23h0Z"/>
          <path class="cls-3" d="M132.32,115.81l-.14.13c.87.89,1.96,1.34,3.23,1.34,1.26,0,2.35-.45,3.23-1.34.88-.89,1.32-2.04,1.32-3.41s-.44-2.52-1.32-3.41c-.87-.89-1.96-1.34-3.23-1.34-1.26,0-2.35.45-3.23,1.34-.88.89-1.32,2.04-1.32,3.41,0,1.36.44,2.52,1.32,3.41l.14-.13.14-.13c-.8-.82-1.21-1.85-1.21-3.14,0-1.29.4-2.32,1.21-3.14.81-.82,1.78-1.22,2.96-1.22s2.15.4,2.96,1.22c.81.82,1.21,1.85,1.21,3.14s-.4,2.32-1.21,3.14c-.81.82-1.78,1.22-2.96,1.22s-2.14-.4-2.96-1.22c0,0-.14.13-.14.13ZM139.58,116.76l-.14-.13c-1.09,1.11-2.42,1.67-4.04,1.67-1.62,0-2.95-.55-4.04-1.67h0s0,0,0,0c-1.08-1.12-1.62-2.47-1.62-4.09,0-1.62.54-2.97,1.62-4.09,1.08-1.11,2.42-1.67,4.04-1.67,1.61,0,2.93.56,4.03,1.68,1.09,1.13,1.63,2.47,1.63,4.08,0,1.62-.54,2.97-1.62,4.09l.14.13.14.13c1.15-1.18,1.73-2.65,1.73-4.36s-.58-3.16-1.74-4.35c-1.16-1.19-2.6-1.79-4.3-1.79s-3.16.6-4.31,1.79h0c-1.15,1.18-1.73,2.65-1.73,4.36s.58,3.18,1.73,4.36h0s0,0,0,0c1.15,1.19,2.6,1.79,4.31,1.79s3.16-.6,4.31-1.79l-.14-.13h0ZM143.31,118.23v-11.4h1.78l5.53,8.87h.06l-.06-2.2v-6.67h1.46v11.4h-1.53l-5.78-9.3h-.06l.06,2.2v7.1h-1.46"/>
          <path class="cls-3" d="M143.31,118.23h.19v-11.21h1.48l5.53,8.87h.36l-.07-2.39v-6.48h1.08v11.02h-1.23l-5.78-9.3h-.36l.07,2.39v6.91h-1.27v.19h.19-.19v.19h1.65v-7.29l-.06-2.2h-.19v.19h.06v-.19l-.16.1,5.84,9.38h1.82v-11.78h-1.84v6.86l.06,2.2h.19v-.19h-.06v.19l.16-.1-5.59-8.95h-2.07v11.78h.19v-.19M202.78,150.52h3.54v-23.74h-3.54v23.74ZM234.65,135.33l-4.06,10.29h-.12l-4.21-10.29h-3.81l6.31,14.39-3.6,8h3.69l9.73-22.39h-3.94,0ZM214.58,147.83c-1.16,0-2.78-.58-2.78-2.02,0-1.83,2.01-2.53,3.75-2.53,1.56,0,2.29.34,3.23.8-.27,2.2-2.17,3.76-4.21,3.76h0ZM215.01,134.81c-2.56,0-5.21,1.13-6.31,3.64l3.14,1.31c.67-1.31,1.92-1.74,3.23-1.74,1.83,0,3.69,1.1,3.72,3.06v.24c-.64-.37-2.01-.92-3.69-.92-3.39,0-6.83,1.86-6.83,5.35,0,3.18,2.78,5.22,5.88,5.22,2.38,0,3.69-1.07,4.51-2.32h.12v1.83h3.41v-9.1c0-4.22-3.14-6.57-7.2-6.57h0ZM193.14,138.22h-5.03v-8.14h5.03c2.65,0,4.15,2.19,4.15,4.07s-1.5,4.07-4.15,4.07h0ZM193.05,126.78h-8.48v23.74h3.54v-9h4.94c3.92,0,7.78-2.84,7.78-7.37s-3.85-7.37-7.78-7.37h0ZM146.81,147.83c-2.44,0-4.49-2.05-4.49-4.86s2.05-4.93,4.49-4.93,4.31,2.08,4.31,4.93-1.89,4.86-4.31,4.86h0ZM150.88,136.66h-.12c-.79-.95-2.32-1.81-4.25-1.81-4.03,0-7.73,3.55-7.73,8.11s3.7,8.05,7.73,8.05c1.92,0,3.45-.86,4.25-1.84h.12v1.16c0,3.09-1.65,4.74-4.31,4.74-2.17,0-3.51-1.56-4.06-2.88l-3.08,1.28c.88,2.14,3.24,4.77,7.15,4.77,4.15,0,7.67-2.45,7.67-8.41v-14.5h-3.36v1.31h0ZM156.68,150.52h3.54v-23.74h-3.54v23.74ZM165.45,142.69c-.09-3.12,2.41-4.71,4.22-4.71,1.41,0,2.6.7,2.99,1.71l-7.21,3h0ZM176.45,140c-.67-1.81-2.72-5.14-6.91-5.14s-7.61,3.28-7.61,8.08c0,4.53,3.42,8.08,8,8.08,3.7,0,5.83-2.27,6.72-3.58l-2.75-1.84c-.92,1.35-2.17,2.24-3.97,2.24s-3.08-.83-3.91-2.45l10.78-4.47-.37-.92h0ZM90.53,137.33v3.43h8.19c-.24,1.93-.88,3.34-1.86,4.32-1.19,1.19-3.05,2.51-6.32,2.51-5.04,0-8.98-4.07-8.98-9.12s3.94-9.12,8.98-9.12c2.72,0,4.7,1.07,6.17,2.45l2.41-2.42c-2.05-1.96-4.76-3.46-8.58-3.46-6.91,0-12.71,5.63-12.71,12.55s5.8,12.55,12.71,12.55c3.73,0,6.54-1.22,8.74-3.52,2.26-2.27,2.96-5.45,2.96-8.02,0-.8-.06-1.53-.18-2.14h-11.52ZM111.54,147.83c-2.44,0-4.55-2.02-4.55-4.89s2.11-4.89,4.55-4.89,4.55,1.99,4.55,4.89-2.11,4.89-4.55,4.89ZM111.54,134.86c-4.46,0-8.1,3.4-8.1,8.08s3.64,8.08,8.1,8.08,8.1-3.43,8.1-8.08-3.64-8.08-8.1-8.08ZM129.2,147.83c-2.44,0-4.55-2.02-4.55-4.89s2.11-4.89,4.55-4.89,4.55,1.99,4.55,4.89-2.11,4.89-4.55,4.89h0ZM129.2,134.86c-4.46,0-8.1,3.4-8.1,8.08s3.64,8.08,8.1,8.08,8.1-3.43,8.1-8.08-3.64-8.08-8.1-8.08h0Z"/>
          <path class="cls-12" d="M19.93,108c-.64.57-1.02,1.53-1.02,2.81v-.29,42.01-.28c0,1.18.32,2.08.88,2.67l.14.14h0c.45.4,1.02.62,1.68.62s1.36-.21,2.12-.64l27.52-15.66,9.45-5.38c1.2-.68,1.87-1.56,1.99-2.46h0c-.11-.9-.79-1.78-1.99-2.47l-9.45-5.38-27.52-15.66c-.76-.43-1.49-.64-2.13-.64s-1.23.21-1.68.62h0Z"/>
          <path class="cls-13" d="M19.93,155.06l-.14-.14c-.55-.59-.88-1.49-.88-2.67v.28-42,.28c0-1.27.38-2.23,1.02-2.81l23.49,23.53-23.49,23.53"/>
          <path class="cls-1" d="M51.25,139.38l-7.83-7.85,7.83-7.85,9.45,5.38c1.2.68,1.87,1.56,1.99,2.46h0c-.11.9-.79,1.78-1.99,2.47l-9.45,5.38"/>
          <path class="cls-5" d="M21.6,155.68c-.66,0-1.23-.21-1.68-.62h0l23.49-23.53,7.83,7.85-27.52,15.66c-.76.43-1.48.64-2.12.64"/>
          <path class="cls-4" d="M43.42,131.53l-23.49-23.53c.45-.4,1.02-.62,1.68-.62s1.36.21,2.13.64l27.52,15.66-7.83,7.85"/>
          <path class="cls-6" d="M21.61,155.96c-.66,0-1.23-.21-1.68-.62h0s0,0,0,0l-.12-.12s0,0-.01-.01l.14-.14c.45.4,1.02.62,1.68.62s1.36-.21,2.12-.64l27.52-15.66.18.18-.18.1-27.52,15.66c-.69.39-1.35.6-1.95.64-.06,0-.12,0-.17,0"/>
          <path class="cls-10" d="M19.79,155.2c-.55-.59-.88-1.49-.88-2.67v-.28c0,1.18.32,2.08.88,2.67l.14.14-.14.14"/>
          <path class="cls-8" d="M51.43,139.55l-.18-.18,9.45-5.38c1.2-.68,1.87-1.56,1.99-2.46,0,.33-.07.66-.22.98-.29.65-.88,1.26-1.77,1.76l-9.28,5.28"/>
          <path class="cls-7" d="M62.69,131.53c-.11-.9-.79-1.78-1.99-2.46l-9.45-5.38.18-.18h0l9.28,5.28c1.32.75,1.99,1.75,1.99,2.74"/>
          <path class="cls-9" d="M18.91,110.81v-.29c0-.11,0-.21,0-.31h0v-.02c.06-1.01.37-1.8.87-2.33l.14.14c-.64.57-1.02,1.53-1.02,2.81"/>
          <path class="cls-2" d="M51.25,123.68l-27.52-15.66c-.76-.43-1.49-.64-2.13-.64s-1.23.21-1.68.62l-.14-.14s.09-.09.14-.13c0,0,0,0,0,0,.44-.4,1.01-.61,1.66-.62h.01c.64,0,1.36.21,2.13.64l27.7,15.76h0l-.18.18"/>
        </g>
      </g>
    </g>
  </g>
</svg>