<?xml version="1.0" encoding="UTF-8"?>
<svg id="Layer_2" data-name="Layer 2" xmlns="http://www.w3.org/2000/svg" viewBox="0 0 255.99 83.04">
  <defs>
    <style>
      .cls-1 {
        fill: #fff;
      }

      .cls-2 {
        fill: #010101;
      }
    </style>
  </defs>
  <g id="Layer_1-2" data-name="Layer 1">
    <g>
      <path class="cls-2" d="M16.44,83.04c-.66,0-1.31,0-1.96-.02-1.36-.02-2.72-.13-4.06-.35-1.25-.21-2.46-.62-3.6-1.19-1.12-.57-2.15-1.31-3.03-2.21-.9-.88-1.65-1.91-2.22-3.03-.58-1.13-.97-2.34-1.18-3.6-.22-1.35-.34-2.71-.36-4.07-.02-.46-.03-1.98-.03-1.98V16.43s.02-1.5.03-1.94c.02-1.36.14-2.72.36-4.06.21-1.26.61-2.47,1.18-3.61.56-1.12,1.31-2.15,2.2-3.03.89-.89,1.92-1.64,3.04-2.22,1.13-.57,2.34-.97,3.59-1.18C11.76.16,13.12.04,14.48.03l1.96-.03h223.1l1.98.03c1.35.02,2.7.13,4.04.35,1.26.21,2.48.62,3.63,1.19,2.25,1.16,4.09,3,5.24,5.25.57,1.13.96,2.34,1.16,3.58.22,1.35.35,2.72.38,4.1,0,.61,0,1.28,0,1.93.02.81.02,1.59.02,2.37v45.44c0,.79,0,1.56-.02,2.33,0,.71,0,1.35,0,2.02-.02,1.35-.15,2.69-.37,4.02-.2,1.26-.6,2.49-1.17,3.63-.57,1.11-1.32,2.13-2.2,3.01-.89.9-1.91,1.65-3.04,2.22-1.14.58-2.36.98-3.62,1.19-1.34.22-2.7.34-4.06.35-.65.02-1.3.02-1.95.02h-2.35s-220.76,0-220.76,0Z"/>
      <path class="cls-1" d="M51.88,42.17c.05-3.68,1.98-7.09,5.11-9.01-1.99-2.84-5.2-4.58-8.66-4.68-3.64-.38-7.18,2.18-9.04,2.18s-4.75-2.14-7.83-2.08c-4.05.13-7.74,2.38-9.71,5.92-4.2,7.27-1.07,17.95,2.95,23.83,2.01,2.88,4.36,6.09,7.44,5.98,3.01-.13,4.14-1.92,7.77-1.92s4.66,1.92,7.8,1.85c3.23-.05,5.27-2.89,7.21-5.8,1.45-2.05,2.56-4.32,3.3-6.71-3.83-1.62-6.33-5.39-6.34-9.55ZM45.95,24.61c1.76-2.11,2.63-4.83,2.42-7.58-2.69.28-5.18,1.57-6.96,3.6-1.76,2.01-2.66,4.63-2.48,7.3,2.73.03,5.32-1.2,7.03-3.32ZM89.94,57.02h-10.27l-2.47,7.29h-4.35l9.73-26.96h4.52l9.73,26.96h-4.43l-2.47-7.29ZM80.73,53.66h8.15l-4.01-11.83h-.11l-4.02,11.83ZM117.85,54.48c0,6.11-3.27,10.03-8.2,10.03-2.54.13-4.95-1.21-6.18-3.44h-.09v9.73h-4.04v-26.16h3.91v3.27h.07c1.29-2.22,3.69-3.56,6.26-3.47,4.99,0,8.28,3.94,8.28,10.03h0ZM113.7,54.48c0-3.98-2.06-6.6-5.19-6.6s-5.16,2.67-5.16,6.6,2.07,6.61,5.16,6.61,5.19-2.6,5.19-6.61h0ZM139.48,54.48c0,6.11-3.27,10.03-8.2,10.03-2.54.13-4.95-1.21-6.18-3.44h-.09v9.73h-4.04v-26.16h3.91v3.27h.07c1.29-2.22,3.69-3.56,6.26-3.47,4.99,0,8.28,3.94,8.28,10.03h0ZM135.34,54.48c0-3.98-2.06-6.6-5.19-6.6s-5.16,2.67-5.16,6.6,2.07,6.61,5.16,6.61,5.19-2.6,5.19-6.61h0ZM153.78,56.79c.3,2.67,2.9,4.43,6.45,4.43s5.85-1.75,5.85-4.17c0-2.09-1.48-3.35-4.97-4.2l-3.5-.84c-4.95-1.2-7.25-3.51-7.25-7.27,0-4.65,4.05-7.85,9.81-7.85s9.6,3.2,9.73,7.85h-4.07c-.24-2.69-2.47-4.31-5.72-4.31s-5.47,1.64-5.47,4.04c0,1.91,1.42,3.03,4.9,3.89l2.97.73c5.53,1.31,7.83,3.53,7.83,7.47,0,5.04-4.02,8.2-10.41,8.2-5.98,0-10.01-3.08-10.27-7.96h4.13ZM179.04,40v4.65h3.74v3.19h-3.74v10.84c0,1.68.75,2.47,2.39,2.47.44,0,.89-.04,1.33-.09v3.18c-.74.14-1.49.2-2.24.19-3.98,0-5.53-1.49-5.53-5.31v-11.27h-2.86v-3.19h2.86v-4.65h4.05ZM184.95,54.48c0-6.18,3.64-10.07,9.32-10.07s9.32,3.89,9.32,10.07-3.61,10.07-9.32,10.07-9.32-3.87-9.32-10.07ZM199.48,54.48c0-4.24-1.94-6.75-5.21-6.75s-5.21,2.52-5.21,6.75,1.94,6.74,5.21,6.74,5.21-2.48,5.21-6.74ZM206.92,44.65h3.85v3.35h.09c.53-2.15,2.52-3.64,4.73-3.55.46,0,.93.05,1.38.15v3.77c-.59-.18-1.2-.26-1.81-.24-.05,0-.11,0-.16,0-2.23,0-4.07,1.83-4.07,4.06,0,.15,0,.31.03.46v11.66h-4.04v-19.65ZM235.57,58.53c-.54,3.57-4.02,6.02-8.46,6.02-5.72,0-9.27-3.83-9.27-9.98s3.57-10.16,9.1-10.16,8.86,3.74,8.86,9.7v1.38h-13.88v.24c-.01.15-.02.3-.02.45,0,2.81,2.31,5.12,5.12,5.12.06,0,.13,0,.19,0,1.95.18,3.81-.95,4.54-2.77h3.83ZM221.93,52.67h9.83c0-.09,0-.18,0-.26,0-2.59-2.13-4.73-4.73-4.73-.03,0-.07,0-.1,0h-.03c-2.73,0-4.98,2.25-4.98,4.98h0ZM80.22,17.05c.14,0,.27-.02.41-.02,3.14,0,5.73,2.59,5.73,5.73,0,.24-.02.48-.05.72,0,4.14-2.24,6.52-6.1,6.52h-4.68v-12.95h4.68ZM77.56,28.18h2.44c.08,0,.16,0,.24,0,2.23,0,4.07-1.84,4.07-4.07,0-.2-.01-.4-.04-.59.03-.18.04-.37.04-.56,0-2.24-1.84-4.08-4.08-4.08-.08,0-.15,0-.23,0h-2.44v9.29ZM88.59,25.12c-.02-.15-.02-.29-.02-.44,0-2.54,2.09-4.63,4.63-4.63s4.63,2.09,4.63,4.63c0,.15,0,.3-.02.44.01.15.02.3.02.45,0,2.54-2.09,4.63-4.63,4.63s-4.63-2.09-4.63-4.63c0-.15,0-.3.02-.45h0ZM95.83,25.12c0-2.12-.95-3.36-2.62-3.36s-2.62,1.24-2.62,3.36.94,3.36,2.62,3.36,2.62-1.24,2.62-3.36h0ZM110.07,30.01h-2l-2.02-7.2h-.15l-2.01,7.2h-1.98l-2.7-9.78h1.96l1.75,7.46h.15l2.01-7.46h1.85l2.01,7.46h.15l1.74-7.46h1.93l-2.69,9.78ZM115.02,20.23h1.86v1.55h.14c.5-1.14,1.68-1.84,2.92-1.74.08,0,.16,0,.24,0,1.74,0,3.18,1.43,3.18,3.18,0,.16-.01.31-.03.47v6.33h-1.93v-5.84c0-1.57-.68-2.35-2.11-2.35-.03,0-.07,0-.1,0-1.23,0-2.24,1.01-2.24,2.24,0,.08,0,.16.01.24v5.72h-1.93v-9.78ZM126.39,16.42h1.93v13.59h-1.93v-13.59ZM131,25.12c-.02-.15-.02-.3-.02-.44,0-2.54,2.09-4.63,4.63-4.63s4.63,2.09,4.63,4.63c0,.15,0,.3-.02.44.02.15.02.3.02.45,0,2.54-2.09,4.63-4.63,4.63s-4.63-2.09-4.63-4.63c0-.15,0-.3.02-.45ZM138.24,25.12c0-2.12-.95-3.36-2.62-3.36s-2.62,1.24-2.62,3.36.94,3.36,2.62,3.36,2.62-1.24,2.62-3.36ZM142.26,27.25c0-1.76,1.31-2.77,3.64-2.92l2.65-.15v-.84c0-1.03-.68-1.62-2-1.62-1.08,0-1.82.4-2.04,1.09h-1.87c.2-1.68,1.78-2.76,3.99-2.76,2.45,0,3.83,1.22,3.83,3.28v6.68h-1.86v-1.37h-.15c-.63,1-1.75,1.59-2.94,1.53-.1.01-.2.02-.31.02-1.62,0-2.95-1.32-2.95-2.94ZM148.54,26.41v-.82l-2.39.15c-1.35.09-1.96.55-1.96,1.41s.76,1.39,1.81,1.39c.08,0,.16.01.23.01,1.21,0,2.22-.94,2.3-2.15ZM153,25.12c0-3.09,1.59-5.05,4.06-5.05,1.25-.06,2.42.61,3,1.72h.15v-5.37h1.93v13.59h-1.85v-1.55h-.15c-.63,1.09-1.81,1.75-3.07,1.71-2.49,0-4.06-1.96-4.06-5.05h0ZM154.99,25.12c0,2.07.98,3.32,2.61,3.32s2.63-1.27,2.63-3.31-1.02-3.32-2.63-3.32-2.61,1.25-2.61,3.31ZM170.11,25.12c-.01-.15-.02-.3-.02-.44,0-2.54,2.09-4.63,4.63-4.63s4.63,2.09,4.63,4.63c0,.15,0,.3-.02.44.02.15.02.3.02.45,0,2.54-2.09,4.63-4.63,4.63s-4.63-2.09-4.63-4.63c0-.15,0-.3.02-.45ZM177.34,25.12c0-2.12-.95-3.36-2.62-3.36s-2.62,1.24-2.62,3.36.94,3.36,2.62,3.36,2.62-1.24,2.62-3.36ZM181.91,20.23h1.86v1.55h.14c.5-1.14,1.68-1.84,2.92-1.74.08,0,.16,0,.24,0,1.74,0,3.18,1.43,3.18,3.18,0,.16-.01.31-.03.47v6.33h-1.93v-5.84c0-1.57-.68-2.35-2.11-2.35-.03,0-.07,0-.1,0-1.23,0-2.24,1.01-2.24,2.24,0,.08,0,.16.01.24v5.72h-1.93v-9.78ZM201.12,17.8v2.48h2.12v1.62h-2.12v5.03c0,1.02.42,1.47,1.38,1.47.25,0,.49-.02.74-.05v1.61c-.35.06-.7.1-1.05.1-2.14,0-3-.76-3-2.64v-5.52h-1.55v-1.63h1.55v-2.48h1.93ZM205.87,16.42h1.91v5.39h.15c.52-1.15,1.72-1.85,2.98-1.75.06,0,.12,0,.17,0,1.77,0,3.22,1.45,3.22,3.22,0,.14-.01.29-.03.43v6.31h-1.93v-5.84c0-1.56-.73-2.35-2.09-2.35-.06,0-.12,0-.19,0-1.25,0-2.28,1.03-2.28,2.28,0,.07,0,.13,0,.2v5.71h-1.93v-13.59ZM225.53,27.37c-.54,1.84-2.33,3.03-4.24,2.83-.04,0-.08,0-.12,0-2.44,0-4.44-2.01-4.44-4.44,0-.2.01-.41.04-.61-.03-.2-.04-.4-.04-.6,0-2.47,2.03-4.51,4.51-4.51h.04c2.72,0,4.36,1.86,4.36,4.93v.67h-6.9v.11c0,.07,0,.14,0,.22,0,1.42,1.17,2.58,2.58,2.58h.03c.94.11,1.86-.36,2.33-1.19h1.86ZM218.75,24.22h4.94c0-.06,0-.12,0-.17,0-1.29-1.07-2.36-2.36-2.36h-.08c-1.37,0-2.5,1.13-2.5,2.5v.03Z"/>
    </g>
  </g>
</svg>